PathFileType	4	(X/Y/Z)	Patient4_TMGait_0pt4_02_left_15.trc.trc
DataRate	CameraRate	NumFrames	NumMarkers	Units	OrigDataRate	OrigDataStartFrame	OrigNumFrames
74.074074074074	74.074074074074	4	33	mm	74.074074074074	36	       141
Frame#	Time	Sacral			L.Shoulder			Chest			R.Shoulder			Neck			R.ASIS			L.ASIS			R.Thigh.Superior			R.Thigh.Lateral			R.Thigh.Inferior			R.Patella			L.Thigh.Superior			L.Thigh.Lateral			L.Thigh.Inferior			L.Patella			L.Shank.Superior			L.Shank.Lateral			L.Shank.Inferior			R.Shank.Superior			R.Shank.Lateral			R.Shank.Inferior			R.Heel			R.Midfoot.Superior			R.Midfoot.Lateral			R.Toe			L.Heel			L.Midfoot.Lateral			L.Midfoot.Superior			L.Toe			L.Elbow			L.Wrist			R.Elbow			R.Wrist			
		X1	Y1	Z1	X2	Y2	Z2	X3	Y3	Z3	X4	Y4	Z4	X5	Y5	Z5	X6	Y6	Z6	X7	Y7	Z7	X8	Y8	Z8	X9	Y9	Z9	X10	Y10	Z10	X11	Y11	Z11	X12	Y12	Z12	X13	Y13	Z13	X14	Y14	Z14	X15	Y15	Z15	X16	Y16	Z16	X17	Y17	Z17	X18	Y18	Z18	X19	Y19	Z19	X20	Y20	Z20	X21	Y21	Z21	X22	Y22	Z22	X23	Y23	Z23	X24	Y24	Z24	X25	Y25	Z25	X26	Y26	Z26	X27	Y27	Z27	X28	Y28	Z28	X29	Y29	Z29	X30	Y30	Z30	X31	Y31	Z31	X32	Y32	Z32	X33	Y33	Z33	

36	20.452500000000	864.608587584019	999.592483778809	470.317452730557	1016.553993749805	1425.898657160637	268.689139394854	1138.854103620598	1362.905219358585	417.965833208558	1073.929092279583	1438.688205008197	598.764333363473	1015.497908676760	1490.357294397614	422.786577270292	1101.273925263920	937.139597643313	566.543459483976	1066.240654750998	957.220506493609	294.890656379430	1120.810218165510	726.137101512972	543.764172102367	1034.134462639800	623.249573012833	613.860820569892	1102.413279613259	560.246944990058	534.357134673430	1091.868373686029	459.530100067178	551.866068244915	1141.724320399450	764.001372879708	324.128260510380	1071.979442031603	636.122066724325	262.342841871540	1170.806708936740	571.905535283013	320.781053932614	1181.464812970175	501.609218783152	327.671110205709	1160.300330376145	426.539140894357	318.630610024504	1078.706977793396	306.529861392851	266.021194283049	1141.876703114642	198.277200921960	333.469798991598	1029.057554932307	385.691204261889	561.721860753098	924.405215563391	320.021464689762	629.750583305085	927.924364059428	212.120585569073	574.231539209178	746.690169955634	87.278953257725	556.047220936317	924.655664069209	102.234152564555	586.266266108626	828.269799153940	59.892086660273	627.538602639770	1031.503183871038	37.178138316285	611.307586708875	1025.842671540485	38.505474652729	375.984616144166	1096.779579816762	35.384860992332	292.616546853011	1179.191444017624	98.832186364048	317.244159943681	1307.417854020826	50.718360516919	284.549012543419	938.964828245325	1076.486530644900	171.185665772505	968.645279378062	816.579416620641	176.356935296788	1167.417630995388	1111.404859121903	731.250375701924	1414.184908302898	1054.763710326385	694.515692974116	
37	20.466000000000	864.095523241748	1000.185478943436	466.438312579012	1018.272794859247	1426.239337527650	265.187496487684	1139.329246245299	1363.334641793774	415.490423968615	1073.144184129547	1439.549594955144	595.629496846190	1016.106998472565	1490.861280267989	419.286461867082	1100.343746489658	937.656135282720	564.096231305800	1067.019267280600	957.864841257591	292.339702523244	1125.134314079278	728.105081078299	541.270945456974	1041.546088248243	623.337410117407	611.399281991109	1111.955203670094	561.600169962725	532.037512569961	1102.985368302862	459.181031730352	550.696007028118	1141.162634569367	763.385635921859	320.715769616555	1069.707581052478	636.067744284061	260.007579232224	1167.918816464008	571.151642354316	318.481820753628	1177.964546149732	501.128441645624	325.928293778315	1156.624627605549	426.085461722902	317.130898221794	1074.666351352686	306.224746132703	264.923684245364	1137.131695631770	198.023018692242	332.956852618205	1037.768442180073	386.242073205162	560.457772328765	930.778475201386	324.466775945977	628.481880829342	931.151662620756	216.083086612989	573.903481512046	745.755118544686	98.682058679205	556.131569793402	923.812926430108	104.454748955485	586.061422812417	825.720463227175	67.137121567685	627.539490941962	1026.638066957302	36.432657261788	611.267550148665	1020.441428931842	38.486038344339	375.866438830851	1091.340471444486	35.260201364924	292.463639567023	1173.739052578027	98.755706836165	317.078694506093	1301.985326322226	50.724223589974	284.406498210018	946.792727574661	1075.719352967804	165.532340126573	982.869263550914	816.603121589067	169.681697297857	1158.885088088801	1110.150011833862	729.294820047662	1402.705172697457	1039.753701434341	694.104277561829	
38	20.479500000000	863.436347074202	1000.708676319474	462.655431014785	1020.107940500269	1426.557869487181	261.787696848694	1139.739385699274	1363.695353010754	413.222811785533	1072.137505143321	1440.283219738690	592.658825247704	1016.667633745593	1491.310571177382	415.903556043716	1099.303504370312	938.136881786747	561.849779437676	1067.679426538990	958.483599297098	289.978031477966	1129.809888767168	730.417904269970	538.829465403929	1049.575375062553	623.664733087390	608.991150012656	1122.122664263127	563.371983200405	529.752840098003	1114.770715618039	459.371971071600	549.336987011586	1140.283846195227	762.620590179219	317.621520190023	1067.339580856245	636.016885503452	257.732440113764	1164.792832549593	570.383053002565	316.462407870067	1174.199054143295	500.590876197879	324.307757820024	1152.692930778078	425.608941468930	315.681433731663	1070.399826888184	305.865392350812	263.928468097804	1132.254808561038	197.738712446590	332.471264472385	1047.311911818666	387.197732157080	559.078004027049	938.177979861750	329.401097105220	627.206819823454	935.251093195503	220.680188537290	573.529791062035	745.889197946496	111.499289897283	556.226864178659	923.612701837521	107.301834611606	585.866893659856	823.858471560966	75.593767447432	627.561586635732	1021.824973729176	35.584758689084	611.246297416148	1014.977509091227	38.443898852678	375.768644506227	1085.840531726771	35.123511825080	292.331470547476	1168.246546120692	98.622129879102	316.950697243317	1296.500562351731	50.643660196659	284.295200115314	954.879344196257	1075.127237001155	159.838364047642	997.667524992660	816.998258259823	163.068905600853	1149.902589424164	1108.854226055212	727.276858777926	1389.886966777731	1024.277611526499	693.744853288207	
39	20.493000000000	862.660251068634	1001.131908141132	459.023538396339	1022.024956713011	1426.830516581364	258.527590210998	1140.080162799616	1363.962898828733	411.175866010816	1070.940253358494	1440.864118268814	589.879063879330	1017.185969079631	1491.694158189644	412.668793498537	1098.189055783226	938.581033627868	559.789101054164	1068.189017211403	959.075812498005	287.781728466073	1134.699280502450	733.071933428401	536.401898205425	1058.047105682012	624.286644601978	606.626246698567	1132.690079180110	565.597281481805	527.493835831303	1127.013097717886	460.151717191642	547.768164169082	1139.155990135604	761.789099589457	314.890868512697	1064.990665949044	635.991186810841	255.535772703930	1161.553434670492	569.634573162220	314.720181999829	1170.292950656539	500.016050485637	322.829667777471	1148.626402659074	425.118855365647	314.309120344266	1066.027340362487	305.478996202318	263.017516710366	1127.316491273603	197.437086896462	332.026784614314	1057.498654059943	388.595001467178	557.566949131286	946.455969626819	334.786090738821	625.919456104322	940.141781553236	225.879350677356	573.102954077321	747.151261931631	125.541073903018	556.346455765659	924.064554495419	110.830633641208	585.721641840210	822.763865059400	85.165867937910	627.605819922992	1017.123239433944	34.640495876096	611.232049320953	1009.482576447008	38.390363646381	375.684890540351	1080.313847274891	34.990608350051	292.216466120222	1162.742567664994	98.454950662270	316.857350091826	1290.993824612211	50.507467267020	284.211651075317	963.233998927338	1074.698377261611	154.135286585833	1013.004021550465	817.768728414674	156.570986799031	1140.472015306634	1107.473429151891	725.179250370567	1375.654698864043	1008.438740291958	693.489550150254	
